# xmcd CD database file generated by OrangeCD 6.3
#
# Track frame offsets:
#	182
#	14775
#	37347
#	49645
#	79815
#	97957
#	112642
#	127025
#	148537
#	161277
#	188720
#	202035
#	215255
#	227350
#
# Disc length: 3215 seconds
#
# Revision: 3
# Processed by: cddbd v1.5.2PL0 Copyright (c) Steve Scherf et al.
# Submitted via: OrangeCD 6.3
#
DISCID=b70c8d0e
DTITLE=Sonny Terry and Brownie McGhee - Walk On
DYEAR=1995
DGENRE=East Coast Blues
TTITLE0=Trouble In Mind
TTITLE1=Drinking In The Blues
TTITLE2=Po-Boy
TTITLE3=Everybody's Blue
TTITLE4=I'm A Stranger Here
TTITLE5=Down By The Riverside
TTITLE6=Walk On
TTITLE7=Blue From The Lowlands
TTITLE8=Right On That Shore
TTITLE9=Blowin' The Fuses
TTITLE10=Daisy
TTITLE11=Draggin' My Heart Around
TTITLE12=Harmonica Hop
TTITLE13=Don't Dog Your Woman
EXTD=
EXTT0=
EXTT1=
EXTT2=
EXTT3=
EXTT4=
EXTT5=
EXTT6=
EXTT7=
EXTT8=
EXTT9=
EXTT10=
EXTT11=
EXTT12=
EXTT13=
PLAYORDER=
